<?xml version="1.0" standalone="no"?>
<!DOCTYPE svg PUBLIC "-//W3C//DTD SVG 20010904//EN"
 "http://www.w3.org/TR/2001/REC-SVG-20010904/DTD/svg10.dtd">
<svg version="1.0" xmlns="http://www.w3.org/2000/svg"
 width="400.000000pt" height="400.000000pt" viewBox="0 0 400.000000 400.000000"
 preserveAspectRatio="xMidYMid meet">

<g transform="translate(0.000000,400.000000) scale(0.100000,-0.100000)"
fill="#000000" stroke="none">
<path d="M1737 3925 c-1004 -137 -1744 -1045 -1668 -2047 36 -478 228 -902
559 -1235 626 -630 1603 -752 2367 -295 198 118 444 344 575 530 182 257 298
545 345 857 30 199 17 499 -30 709 -48 212 -166 479 -293 661 -314 452 -799
749 -1338 820 -139 18 -382 18 -517 0z m-619 -1491 c108 -45 164 -177 142
-334 -12 -82 -31 -129 -72 -176 -57 -64 -91 -74 -275 -74 l-163 0 0 300 0 300
165 0 c127 0 174 -4 203 -16z m2052 -79 l0 -65 35 0 c34 0 35 -1 35 -40 0 -39
-1 -40 -35 -40 l-35 0 0 -134 c0 -142 1 -146 51 -146 16 0 19 -7 19 -45 l0
-45 -60 0 c-64 0 -113 18 -124 45 -3 9 -6 86 -6 171 l0 154 -30 0 c-28 0 -30
2 -30 40 0 38 2 40 30 40 l30 0 0 65 0 65 60 0 60 0 0 -65z m-1555 -56 c50
-14 120 -84 134 -136 29 -104 0 -229 -67 -285 -69 -58 -214 -59 -290 -2 -104
80 -109 290 -9 382 51 47 147 64 232 41z m475 -48 l0 -58 -49 -7 c-82 -11 -91
-30 -91 -197 l0 -139 -60 0 -60 0 0 220 0 220 55 0 55 0 0 -32 0 -32 28 32
c25 31 63 49 105 51 14 1 17 -8 17 -58z m320 41 c48 -19 90 -69 90 -108 0 -22
-4 -24 -54 -24 -46 0 -56 4 -70 25 -29 45 -136 42 -136 -4 0 -26 19 -36 105
-56 75 -17 135 -47 152 -75 40 -63 10 -158 -62 -194 -31 -16 -59 -21 -120 -21
-120 0 -185 40 -201 123 l-6 32 61 0 c40 0 61 -4 61 -12 0 -6 7 -20 17 -30 30
-33 153 -20 153 16 0 22 -21 34 -104 56 -113 30 -152 52 -166 95 -45 136 118
239 280 177z m438 3 c75 -32 118 -97 129 -195 l6 -59 -161 -3 -160 -3 13 -38
c17 -50 40 -66 93 -67 33 0 48 6 66 25 20 21 32 25 80 25 65 0 68 -7 31 -63
-70 -103 -253 -111 -342 -15 -37 39 -53 92 -53 172 0 104 34 169 109 208 62
32 130 37 189 13z m-1866 -634 c37 -41 36 -61 -2 -61 -16 0 -30 4 -30 9 0 18
-31 41 -54 41 -52 0 -83 -88 -52 -147 24 -48 81 -49 106 -4 13 24 60 29 60 6
0 -8 -14 -30 -31 -50 -28 -32 -36 -35 -84 -35 -41 0 -57 5 -78 24 -44 41 -57
138 -25 199 33 63 140 73 190 18z m328 -106 l0 -135 -25 0 -25 0 0 135 0 135
25 0 25 0 0 -135z m100 0 l0 -135 -30 0 -30 0 0 135 0 135 30 0 30 0 0 -135z
m921 125 c29 -16 49 -64 49 -120 0 -100 -46 -140 -160 -140 l-60 0 0 135 0
135 76 0 c41 0 84 -5 95 -10z m349 -30 c0 -37 2 -40 19 -30 48 25 106 -7 117
-66 8 -45 -11 -110 -36 -124 -26 -14 -73 -13 -88 2 -9 9 -12 9 -12 0 0 -7 -11
-12 -25 -12 l-25 0 0 135 0 135 25 0 c23 0 25 -4 25 -40z m220 -95 l0 -135
-25 0 -25 0 0 135 0 135 25 0 25 0 0 -135z m100 110 c0 -21 -5 -25 -30 -25
-25 0 -30 4 -30 25 0 21 5 25 30 25 25 0 30 -4 30 -25z m-1826 -46 c35 -16 60
-72 51 -116 -10 -53 -45 -83 -97 -83 -56 0 -85 21 -98 70 -25 94 58 168 144
129z m397 1 c22 -12 49 -61 49 -90 0 -18 -6 -20 -65 -20 -58 0 -65 -2 -65 -20
0 -23 45 -39 63 -21 16 16 57 14 57 -3 0 -24 -42 -46 -86 -46 -35 0 -47 5 -68
31 -41 48 -29 139 21 168 23 13 69 14 94 1z m179 0 c13 -7 21 -7 25 0 3 5 15
10 26 10 18 0 19 -8 19 -123 0 -133 -4 -145 -58 -162 -50 -15 -122 15 -122 51
0 16 45 20 55 4 10 -16 62 -12 69 6 11 28 6 32 -23 21 -41 -15 -78 3 -97 50
-37 88 33 182 106 143z m251 -19 c19 -20 29 -40 29 -60 l0 -31 -66 0 c-55 0
-65 -3 -62 -16 5 -28 34 -40 61 -25 13 7 34 11 47 9 l22 -3 -22 -27 c-17 -23
-30 -28 -64 -28 -53 0 -83 21 -95 66 -31 111 74 190 150 115z m457 21 c8 -6
12 -31 11 -74 -2 -73 3 -88 31 -88 28 0 40 30 40 98 0 56 2 60 25 64 l25 5 0
-103 0 -104 -25 0 c-14 0 -25 5 -25 11 0 8 -4 8 -14 0 -8 -7 -32 -11 -53 -9
-49 4 -63 31 -63 124 0 84 10 100 48 76z m540 -100 l3 -102 -31 0 -30 0 0 98
c0 54 2 101 5 104 3 2 15 4 27 3 22 -2 23 -6 26 -103z m92 91 c0 -15 2 -14 18
0 22 20 42 21 76 6 30 -14 36 -34 36 -126 l0 -73 -30 0 -30 0 0 80 c0 77 -1
80 -23 80 -37 0 -47 -19 -47 -92 0 -66 -1 -68 -25 -68 -25 0 -25 0 -25 98 0
54 2 101 5 103 12 12 45 6 45 -8z m-1740 -1145 c0 -11 -17 -10 -40 2 -13 7
-21 7 -25 0 -3 -5 5 -15 19 -22 14 -6 26 -15 26 -20 0 -10 -3 -10 -34 2 -21 8
-26 6 -26 -5 0 -9 11 -20 25 -25 14 -5 25 -15 25 -21 0 -6 -7 -8 -16 -5 -9 3
-27 9 -40 12 -28 7 -29 15 -8 76 l15 46 40 -16 c21 -8 39 -19 39 -24z m1384
-8 c10 -23 15 -48 12 -56 -8 -20 -36 -29 -55 -17 -12 8 -18 5 -26 -11 -12 -24
-63 -35 -69 -14 -1 7 -8 27 -13 44 -13 39 0 64 31 64 23 0 41 -24 31 -40 -6
-10 64 -32 77 -24 15 10 8 24 -12 24 -21 0 -27 15 -10 25 12 7 4 25 -11 25 -5
0 -9 -7 -9 -15 0 -8 -4 -15 -10 -15 -14 0 -12 37 3 43 30 13 44 5 61 -33z
m-1315 -69 c-14 -55 -15 -56 -52 -42 -31 12 -39 35 -25 67 10 21 17 25 40 20
22 -4 28 -2 28 11 0 13 3 14 11 6 8 -8 8 -25 -2 -62z m1151 29 c28 -53 -11
-124 -47 -87 -17 18 -17 18 6 15 13 -2 26 3 29 10 3 9 -3 11 -22 6 -21 -5 -28
-1 -37 20 -9 20 -9 29 1 41 18 22 57 19 70 -5z m-1116 -46 c-5 -27 -3 -34 9
-34 9 0 18 13 22 30 10 45 29 38 20 -7 -9 -50 -10 -51 -39 -46 -38 8 -47 24
-35 66 12 46 32 38 23 -9z m1020 -5 c15 -50 14 -75 -4 -64 -4 3 -11 21 -14 40
-4 21 -13 35 -22 35 -12 0 -12 3 -2 20 19 30 26 25 42 -31z m-894 6 c17 -20 5
-31 -16 -15 -13 12 -17 11 -25 -1 -14 -23 -5 -34 29 -33 72 3 82 4 82 14 0 6
-11 8 -25 4 -15 -4 -25 -2 -25 4 0 17 19 24 46 18 21 -6 24 -12 24 -51 l0 -44
-32 5 c-18 4 -37 12 -43 18 -5 6 -20 10 -33 8 -45 -7 -69 40 -36 72 20 20 38
20 54 1z m143 -15 c3 -11 1 -20 -5 -20 -6 0 -8 -15 -6 -35 3 -28 1 -35 -14
-35 -16 0 -18 23 -9 103 2 16 29 6 34 -13z m37 10 c0 -5 -4 -10 -10 -10 -5 0
-10 5 -10 10 0 6 5 10 10 10 6 0 10 -4 10 -10z m604 -16 c23 -23 20 -32 -15
-39 -23 -5 -28 -10 -20 -18 8 -8 14 -8 23 1 14 14 28 16 28 2 0 -18 -39 -31
-59 -21 -14 8 -22 7 -31 -4 -7 -8 -23 -15 -36 -15 -30 0 -50 41 -34 71 11 20
54 26 65 8 5 -6 13 -3 22 10 17 25 36 27 57 5z m-264 -4 c0 -5 -4 -10 -10 -10
-5 0 -10 5 -10 10 0 6 5 10 10 10 6 0 10 -4 10 -10z m-340 -14 c0 -29 -13 -76
-21 -76 -10 0 -12 50 -3 74 8 20 24 21 24 2z m88 -43 c2 -33 0 -43 -12 -43
-11 0 -13 8 -9 35 4 28 2 35 -11 35 -11 0 -16 -9 -16 -30 0 -20 -5 -30 -15
-30 -16 0 -19 20 -9 58 5 19 12 23 38 20 29 -3 31 -6 34 -45z m87 37 c6 0 9
-23 7 -55 -3 -49 -7 -56 -29 -61 -17 -5 -30 -1 -41 11 -16 16 -15 17 10 11 15
-3 30 -2 33 4 3 5 -2 10 -12 10 -25 0 -43 19 -43 45 0 28 21 47 45 41 11 -3
25 -6 30 -6z m119 4 c26 -10 18 -25 -9 -18 -15 4 -25 2 -25 -5 0 -6 8 -11 18
-11 18 0 42 -18 42 -32 0 -14 -40 -29 -60 -23 -29 9 -24 26 5 19 15 -4 25 -2
25 4 0 6 -10 12 -22 14 -26 3 -37 36 -16 49 16 10 22 11 42 3z m147 -34 c5
-23 3 -37 -4 -42 -8 -5 -14 3 -17 24 -7 46 -30 49 -30 4 0 -40 -14 -48 -24
-13 -14 53 -8 65 31 64 34 -2 38 -5 44 -37z m-91 -9 c0 -22 -4 -43 -10 -46 -6
-3 -10 4 -10 17 0 13 -3 33 -6 46 -5 16 -2 22 10 22 12 0 16 -10 16 -39z"/>
<path d="M880 2150 l0 -200 74 0 c113 0 154 35 176 150 11 58 6 115 -16 177
-20 55 -58 73 -158 73 l-76 0 0 -200z"/>
<path d="M1478 2196 c-44 -33 -61 -136 -34 -200 37 -88 145 -88 182 0 27 64
10 167 -34 200 -22 17 -92 17 -114 0z"/>
<path d="M2712 2203 c-13 -5 -42 -55 -42 -73 0 -6 34 -10 90 -10 84 0 90 1 90
20 0 35 -44 70 -87 69 -21 0 -44 -3 -51 -6z"/>
<path d="M2210 1560 l0 -90 38 0 c54 0 74 25 74 92 0 61 -23 88 -78 88 l-34 0
0 -90z"/>
<path d="M2692 1568 c-27 -27 -7 -108 27 -108 29 0 42 25 39 72 -3 37 -6 43
-28 46 -14 2 -31 -3 -38 -10z"/>
<path d="M1090 1561 c-24 -45 -2 -101 40 -101 35 0 56 80 28 108 -18 18 -56
14 -68 -7z"/>
<path d="M1497 1574 c-18 -19 -5 -34 29 -34 28 0 35 3 32 18 -3 17 -48 29 -61
16z"/>
<path d="M1694 1566 c-3 -8 -4 -29 -2 -47 4 -39 30 -59 56 -43 21 13 28 70 11
90 -15 18 -58 18 -65 0z"/>
<path d="M1906 1564 c-9 -24 -9 -24 34 -24 41 0 49 7 28 28 -17 17 -55 15 -62
-4z"/>
<path d="M2600 435 c0 -9 5 -15 11 -13 6 2 11 8 11 13 0 5 -5 11 -11 13 -6 2
-11 -4 -11 -13z"/>
<path d="M2615 400 c-10 -17 12 -37 25 -24 8 8 6 15 -4 23 -10 9 -16 9 -21 1z"/>
<path d="M1367 413 c-13 -12 -7 -43 8 -43 9 0 15 9 15 25 0 24 -10 32 -23 18z"/>
<path d="M2522 406 c1 -10 8 -17 13 -17 15 1 12 24 -3 29 -9 3 -13 -2 -10 -12z"/>
<path d="M1620 310 c0 -5 7 -10 15 -10 8 0 15 5 15 10 0 6 -7 10 -15 10 -8 0
-15 -4 -15 -10z"/>
<path d="M2325 340 c-3 -5 1 -10 10 -10 9 0 13 5 10 10 -3 6 -8 10 -10 10 -2
0 -7 -4 -10 -10z"/>
<path d="M2240 306 c0 -29 15 -33 44 -11 23 17 21 21 -17 30 -24 6 -27 5 -27
-19z"/>
<path d="M1892 308 c-13 -13 -4 -38 14 -38 15 0 19 35 6 44 -5 3 -14 0 -20 -6z"/>
</g>
</svg>
