<?xml version="1.0" standalone="no"?>
<!DOCTYPE svg PUBLIC "-//W3C//DTD SVG 20010904//EN"
 "http://www.w3.org/TR/2001/REC-SVG-20010904/DTD/svg10.dtd">
<svg version="1.0" xmlns="http://www.w3.org/2000/svg"
 width="301.000000pt" height="300.000000pt" viewBox="0 0 301.000000 300.000000"
 preserveAspectRatio="xMidYMid meet">

<g transform="translate(0.000000,300.000000) scale(0.100000,-0.100000)"
fill="#000000" stroke="none">
<path d="M1308 2975 c-503 -72 -913 -369 -1148 -831 -99 -193 -143 -387 -144
-629 0 -217 26 -367 95 -550 128 -337 392 -623 723 -784 212 -104 386 -149
611 -158 608 -26 1158 299 1429 844 46 93 82 196 116 330 17 70 20 113 20 306
0 206 -2 235 -25 331 -26 109 -76 248 -126 347 -92 184 -297 415 -476 537
-178 121 -395 212 -588 247 -126 22 -367 28 -487 10z m340 -35 c357 -38 665
-183 912 -430 158 -159 264 -326 334 -529 59 -171 78 -283 79 -466 1 -185 -16
-295 -68 -452 -75 -225 -176 -385 -354 -564 -262 -261 -550 -396 -923 -431
-404 -38 -833 113 -1127 397 -219 212 -345 438 -417 750 -27 114 -27 453 -1
575 61 282 187 511 402 725 256 256 514 377 920 428 59 8 152 6 243 -3z"/>
<path d="M1354 2831 c-11 -5 -33 -23 -47 -41 -53 -63 -25 -168 50 -190 54 -17
87 -10 91 17 3 20 0 22 -19 15 -34 -13 -67 -3 -94 30 -32 38 -32 69 1 107 21
25 33 31 66 31 32 0 39 3 36 18 -4 19 -50 27 -84 13z"/>
<path d="M1482 2715 l-4 -125 26 0 25 0 0 125 c1 123 0 125 -22 125 -21 0 -22
-3 -25 -125z"/>
<path d="M1635 2816 c-117 -51 -96 -218 30 -242 42 -7 104 24 128 66 37 62 6
146 -64 174 -47 19 -55 19 -94 2z m106 -55 c20 -20 29 -39 29 -61 0 -40 -47
-90 -85 -90 -87 0 -122 124 -46 165 40 22 70 18 102 -14z"/>
<path d="M1086 2650 c-10 -78 -16 -143 -14 -146 12 -11 36 10 42 36 9 50 111
80 138 42 9 -12 20 -16 35 -13 21 5 14 16 -74 111 -53 58 -100 106 -103 108
-4 1 -14 -61 -24 -138z m83 19 c13 -17 21 -32 19 -35 -3 -2 -20 -7 -38 -10
-29 -6 -32 -5 -27 10 4 10 7 29 7 42 0 32 12 30 39 -7z"/>
<path d="M1838 2687 c-15 -56 -30 -109 -33 -118 -4 -11 0 -18 14 -22 25 -6 25
-7 41 71 7 34 16 65 21 67 8 5 109 -166 109 -185 0 -31 20 3 61 105 44 108 45
115 27 121 -11 3 -20 4 -22 2 -11 -19 -36 -82 -36 -91 0 -7 -6 -22 -14 -32
-12 -17 -18 -9 -71 83 -31 56 -60 102 -64 102 -4 0 -19 -46 -33 -103z"/>
<path d="M908 2700 c-15 -9 -13 -17 22 -78 31 -52 36 -68 24 -70 -8 -2 -57 6
-109 18 -52 12 -100 20 -105 18 -7 -2 97 -173 127 -207 2 -3 10 2 18 10 12 12
9 22 -26 72 -22 33 -38 61 -35 64 2 3 49 -4 103 -16 54 -12 104 -21 111 -21 6
0 -9 37 -34 83 -25 45 -50 94 -57 110 -13 30 -15 31 -39 17z"/>
<path d="M2150 2555 c-63 -41 -116 -78 -118 -83 -6 -18 31 -22 49 -6 20 18 30
16 88 -20 35 -23 40 -30 35 -54 -4 -19 -1 -32 10 -41 13 -11 17 -11 20 0 6 19
36 272 33 275 -1 2 -54 -30 -117 -71z m62 -77 c-10 -10 -62 17 -62 31 0 3 15
15 33 27 l32 21 3 -35 c2 -19 -1 -39 -6 -44z"/>
<path d="M2345 2428 c-38 -44 -74 -86 -79 -93 -6 -8 3 -23 30 -48 21 -20 44
-37 51 -37 24 0 24 21 -1 41 -14 11 -26 26 -26 33 0 6 30 44 66 84 55 60 64
75 54 87 -7 8 -15 15 -19 14 -3 0 -37 -37 -76 -81z"/>
<path d="M535 2406 c-26 -11 -53 -40 -78 -82 -6 -10 74 -79 173 -151 13 -10
21 -6 44 24 76 95 40 207 -71 219 -21 2 -51 -2 -68 -10z m117 -56 c25 -26 29
-36 24 -63 -4 -18 -14 -40 -24 -49 -17 -17 -20 -15 -80 33 -34 27 -62 54 -62
59 0 5 12 18 26 29 39 30 80 27 116 -9z"/>
<path d="M1488 2323 c-72 -82 -60 -206 31 -322 15 -20 31 -49 35 -64 8 -33
-17 -90 -65 -154 -55 -72 -51 -183 8 -253 37 -45 53 -39 53 18 0 37 7 57 34
94 18 26 39 68 46 93 17 62 8 186 -20 260 -12 33 -23 69 -24 80 -2 11 -15 47
-30 80 -17 37 -30 84 -34 123 -5 66 -10 72 -34 45z"/>
<path d="M2538 2226 c-53 -34 -100 -64 -103 -68 -12 -12 36 -89 68 -108 84
-52 187 8 189 109 0 25 -9 55 -27 85 -15 25 -28 46 -28 45 -1 0 -46 -29 -99
-63z m108 -31 c8 -20 12 -46 8 -60 -8 -33 -50 -65 -85 -65 -26 0 -89 42 -89
60 0 6 138 100 148 100 2 0 10 -16 18 -35z"/>
<path d="M1408 2174 c-18 -17 -7 -125 19 -196 19 -50 27 -92 27 -135 l0 -61
26 37 c61 84 63 100 17 167 -50 72 -70 114 -76 157 -3 22 -9 35 -13 31z"/>
<path d="M346 2147 c4 -6 44 -60 88 -120 68 -91 82 -104 88 -87 4 12 1 30 -9
48 -16 27 -15 31 8 73 19 34 30 44 50 44 29 0 64 24 52 35 -4 4 -70 10 -146
14 -109 5 -137 3 -131 -7z m149 -36 c6 -11 -15 -61 -26 -61 -8 0 -49 54 -49
64 0 10 68 7 75 -3z"/>
<path d="M1352 2098 c-6 -24 -14 -59 -17 -79 -4 -25 -18 -48 -45 -73 -60 -55
-73 -88 -68 -166 3 -42 14 -85 28 -114 31 -62 130 -156 164 -156 l25 0 -24 36
c-27 39 -41 109 -30 151 3 15 16 48 27 72 25 55 21 132 -12 205 -14 30 -22 71
-23 107 -1 33 -5 59 -8 59 -4 0 -11 -19 -17 -42z"/>
<path d="M913 2053 l-32 -25 -27 21 c-33 26 -40 21 -26 -19 10 -28 8 -32 -18
-52 -40 -29 -38 -40 8 -36 34 3 38 1 48 -32 l11 -34 17 32 c14 27 22 32 51 32
42 0 43 4 9 34 -25 21 -26 24 -14 60 6 20 10 39 8 41 -1 1 -17 -8 -35 -22z"/>
<path d="M2616 2011 c-16 -11 -35 -30 -42 -43 -28 -49 -9 -148 28 -148 22 0
23 18 3 44 -19 25 -19 56 1 84 22 32 32 27 47 -25 10 -36 19 -49 35 -51 26 -4
27 2 7 58 -19 55 -19 60 5 60 32 0 70 -44 70 -80 0 -25 4 -31 18 -28 12 3 17
13 16 36 -5 88 -114 142 -188 93z"/>
<path d="M1666 1955 c53 -120 42 -223 -35 -343 -46 -70 -58 -102 -39 -101 15
0 86 95 118 158 43 85 20 238 -47 319 -22 26 -22 24 3 -33z"/>
<path d="M292 1975 c-25 -11 -39 -28 -57 -70 -14 -31 -25 -61 -25 -68 0 -10
35 -21 230 -68 10 -3 19 12 29 51 13 51 12 59 -4 94 -10 20 -28 44 -41 53 -34
22 -94 26 -132 8z m97 -40 c16 -8 31 -22 35 -30 8 -23 8 -83 -1 -88 -5 -3 -33
4 -63 14 -30 10 -63 18 -72 18 -56 3 1 99 60 101 7 0 26 -7 41 -15z"/>
<path d="M1662 1750 c0 -14 2 -19 5 -12 2 6 2 18 0 25 -3 6 -5 1 -5 -13z"/>
<path d="M190 1726 c0 -14 6 -26 13 -26 13 0 96 -13 185 -28 50 -9 52 -8 52
14 0 25 -3 26 -135 44 -44 6 -88 13 -97 16 -14 4 -18 -1 -18 -20z"/>
<path d="M1412 1698 c-15 -58 10 -158 39 -158 5 0 2 15 -8 33 -12 21 -17 54
-17 100 0 37 -1 67 -2 67 -1 0 -6 -19 -12 -42z"/>
<path d="M2765 1710 c-22 -4 -66 -11 -97 -15 -49 -5 -58 -10 -58 -26 0 -18 5
-19 49 -13 42 5 49 4 53 -13 9 -33 -7 -56 -48 -68 -29 -8 -40 -16 -42 -34 -3
-18 0 -22 11 -18 9 3 32 9 51 13 20 3 40 14 45 22 9 15 11 15 28 -1 20 -17 60
-22 79 -9 26 17 36 55 29 113 -8 66 -9 67 -100 49z m65 -74 c0 -60 -50 -74
-71 -20 -14 39 -5 54 36 54 33 0 35 -2 35 -34z"/>
<path d="M182 1605 c-30 -65 2 -135 60 -135 27 0 68 40 68 65 0 16 33 45 52
45 34 0 28 -61 -9 -102 -15 -17 -14 -18 14 -18 24 0 32 7 46 35 23 49 21 82
-8 110 -45 46 -92 29 -131 -46 -25 -51 -39 -57 -58 -26 -7 11 -6 26 7 51 9 20
13 36 8 36 -5 0 -16 2 -23 5 -9 4 -19 -4 -26 -20z"/>
<path d="M1323 1493 c13 -21 175 -36 264 -26 78 10 103 17 92 27 -2 2 -31 -1
-64 -6 -58 -10 -178 -6 -259 8 -26 5 -37 4 -33 -3z"/>
<path d="M2673 1470 c-34 -21 -63 -66 -63 -100 0 -39 29 -89 62 -110 60 -37
142 -17 174 42 18 32 17 109 -2 136 -36 52 -115 67 -171 32z m127 -46 c65 -64
-11 -175 -96 -139 -68 28 -71 124 -4 157 40 20 65 16 100 -18z"/>
<path d="M1295 1460 c-8 -12 83 -31 176 -37 92 -6 249 12 249 29 0 6 -14 8
-32 4 -87 -15 -246 -17 -316 -3 -40 8 -75 11 -77 7z"/>
<path d="M385 1413 c-22 -8 -48 -21 -57 -30 -14 -13 -21 -14 -30 -5 -19 19
-73 14 -92 -7 -15 -16 -16 -30 -11 -88 l7 -69 124 24 c104 21 124 28 124 43 0
16 -6 17 -48 12 -40 -4 -50 -2 -55 12 -10 26 9 52 48 65 27 9 35 17 35 36 0
13 -1 23 -2 23 -2 -1 -21 -8 -43 -16z m-86 -94 c14 -40 8 -49 -35 -49 -32 0
-34 2 -34 33 0 40 6 47 36 47 16 0 25 -9 33 -31z"/>
<path d="M1262 1413 c11 -59 414 -71 471 -14 20 20 2 21 -84 5 -96 -19 -228
-14 -319 11 -70 19 -72 19 -68 -2z"/>
<path d="M1193 1368 c-18 -6 -33 -14 -33 -17 0 -4 33 -19 74 -34 70 -28 82
-29 302 -34 l228 -5 53 28 c29 16 53 31 53 34 0 3 -24 12 -53 21 -50 14 -56
14 -107 -5 -81 -30 -317 -28 -410 2 -36 12 -67 21 -70 21 -3 -1 -20 -6 -37
-11z"/>
<path d="M1113 1190 c3 -83 9 -155 13 -160 12 -11 162 -79 166 -75 2 2 2 73 0
158 l-3 155 -81 34 c-45 18 -86 35 -91 37 -4 1 -6 -65 -4 -149z"/>
<path d="M1838 1292 l-48 -26 0 -153 c0 -86 4 -153 9 -153 5 0 11 3 13 8 2 4
22 20 46 36 l42 29 0 143 c0 79 -3 144 -7 143 -5 0 -29 -12 -55 -27z"/>
<path d="M1020 1303 c-48 -18 -65 -70 -35 -109 13 -18 14 -16 15 22 0 64 52
89 75 36 14 -31 22 -27 17 9 -3 21 -12 33 -29 40 -13 5 -25 9 -26 8 -1 0 -9
-3 -17 -6z"/>
<path d="M1932 1278 c-15 -15 -16 -38 -2 -38 6 0 10 4 10 9 0 16 40 23 56 10
11 -9 15 -25 12 -51 -4 -39 5 -51 16 -22 24 63 -48 136 -92 92z"/>
<path d="M1033 1249 c-6 -6 -9 -39 -6 -82 6 -95 9 -103 29 -86 14 11 16 27 11
88 -6 76 -15 99 -34 80z"/>
<path d="M1322 1103 l3 -158 87 -2 87 -1 -33 29 c-19 16 -36 43 -40 60 -6 34
12 86 37 108 10 7 17 27 17 44 0 18 9 40 22 54 l21 23 -102 0 -102 0 3 -157z"/>
<path d="M1591 1231 c15 -21 20 -37 15 -55 -4 -16 1 -39 15 -66 15 -28 19 -50
15 -73 -8 -39 -13 -46 -50 -75 l-29 -23 104 3 c76 2 104 6 103 16 -1 6 -2 77
-2 157 l-2 145 -95 0 -96 0 22 -29z"/>
<path d="M1957 1234 c-4 -4 -7 -43 -7 -86 0 -63 3 -78 15 -78 12 0 15 15 17
70 0 39 1 75 2 82 1 13 -17 21 -27 12z"/>
<path d="M2592 1209 c-53 -65 -34 -149 33 -149 27 0 42 8 72 40 24 27 44 40
57 38 32 -5 30 -35 -4 -70 -24 -24 -28 -33 -18 -39 33 -22 79 26 81 84 1 47
-17 67 -61 67 -29 0 -45 -8 -77 -40 -28 -28 -47 -39 -58 -34 -27 10 -20 50 14
83 27 28 29 32 12 38 -10 3 -20 7 -23 8 -3 1 -15 -10 -28 -26z"/>
<path d="M1511 1212 c-5 -10 -6 -42 -3 -72 5 -42 11 -56 26 -58 10 -2 23 1 29
7 15 15 26 103 16 124 -12 22 -56 22 -68 -1z"/>
<path d="M432 1203 c-9 -3 -7 -12 8 -30 24 -31 25 -54 4 -95 -16 -30 -17 -31
-30 -13 -8 11 -17 36 -21 57 -6 38 -16 45 -41 29 -10 -6 -9 -18 7 -60 18 -43
19 -53 7 -57 -35 -13 -94 56 -83 97 5 20 -9 25 -30 11 -17 -11 0 -78 28 -108
93 -99 254 8 203 135 -16 39 -24 45 -52 34z"/>
<path d="M1460 1089 c-16 -39 -5 -74 32 -102 49 -36 118 3 118 67 0 19 -4 38
-10 41 -6 4 -10 -10 -10 -34 0 -30 -6 -44 -22 -55 -31 -22 -51 -20 -76 7 -24
25 -27 48 -12 77 6 11 6 21 1 24 -5 3 -14 -8 -21 -25z"/>
<path d="M2522 1056 c-9 -19 -8 -27 4 -36 20 -18 18 -37 -12 -88 -23 -40 -29
-43 -55 -38 -22 4 -31 1 -39 -14 -11 -21 -11 -21 165 -40 113 -12 108 -13 102
4 -5 13 -134 214 -147 229 -3 4 -12 -3 -18 -17z m90 -178 c-12 -12 -72 2 -72
16 0 6 7 22 16 34 l16 23 24 -32 c13 -18 20 -37 16 -41z"/>
<path d="M1490 1051 c0 -26 62 -43 75 -20 4 6 5 12 4 13 -9 8 -79 14 -79 7z"/>
<path d="M1157 971 c13 -10 56 -33 97 -50 l75 -31 224 0 224 0 41 30 c23 17
42 35 42 40 0 15 -10 12 -46 -15 l-33 -25 -241 0 -241 0 -57 29 c-31 15 -68
31 -82 35 l-25 7 22 -20z"/>
<path d="M1058 958 c-21 -11 -38 -23 -38 -26 0 -4 50 -35 111 -70 l112 -63
301 7 301 6 68 51 c37 28 66 55 64 60 -1 4 -21 17 -45 27 -41 19 -42 19 -52 0
-6 -11 -31 -35 -56 -54 l-45 -35 -242 6 -241 6 -81 40 c-44 21 -84 46 -88 53
-10 18 -23 16 -69 -8z"/>
<path d="M411 959 c-56 -4 -105 -9 -107 -12 -2 -2 2 -10 9 -19 10 -12 27 -13
92 -8 44 4 83 4 87 1 4 -3 -15 -38 -41 -77 -42 -63 -46 -74 -34 -90 7 -9 14
-16 16 -13 22 27 137 212 137 219 0 11 -7 11 -159 -1z"/>
<path d="M990 822 l0 -89 93 -58 c50 -32 102 -65 115 -73 l22 -14 0 95 0 95
-110 66 c-60 36 -112 66 -115 66 -3 0 -5 -40 -5 -88z"/>
<path d="M1928 839 l-68 -51 0 -94 c0 -52 3 -94 6 -94 3 0 34 25 67 56 l62 55
5 90 c3 49 3 89 0 89 -3 0 -35 -23 -72 -51z"/>
<path d="M552 775 c-51 -42 -92 -79 -92 -83 0 -5 5 -13 11 -19 10 -10 67 30
192 137 9 7 -1 40 -12 40 -4 0 -48 -34 -99 -75z"/>
<path d="M2371 826 c-10 -12 -5 -21 26 -49 37 -35 38 -35 19 -56 -24 -26 -40
-26 -83 0 -30 19 -36 20 -49 7 -13 -13 -10 -18 24 -40 21 -14 47 -27 58 -30
11 -2 20 -13 22 -28 5 -37 31 -60 65 -60 24 0 41 11 79 52 l48 52 -38 30 c-20
17 -57 49 -82 71 -73 66 -76 67 -89 51z m119 -190 c-25 -25 -33 -29 -48 -20
-26 17 -26 40 -1 74 l23 30 28 -27 28 -27 -30 -30z"/>
<path d="M612 698 c-83 -82 -91 -93 -77 -107 14 -14 21 -9 75 44 41 40 61 54
64 44 2 -8 7 -61 10 -118 3 -58 9 -107 11 -110 6 -5 24 15 118 129 42 50 44
56 30 72 -14 16 -18 13 -54 -35 -22 -29 -45 -52 -51 -52 -7 0 -14 19 -16 45
-2 25 -7 75 -10 112 l-7 67 -93 -91z"/>
<path d="M1249 776 c-2 -2 -3 -47 -1 -100 l3 -96 295 0 294 0 0 100 0 100
-293 0 c-162 0 -296 -2 -298 -4z"/>
<path d="M2209 664 c-11 -13 -11 -18 -2 -21 7 -3 45 -45 84 -94 57 -72 74 -87
85 -78 8 6 14 15 14 18 0 9 -148 185 -159 189 -4 1 -14 -5 -22 -14z"/>
<path d="M2069 567 c-60 -40 -76 -105 -39 -164 49 -81 174 -83 215 -3 19 38
19 109 -1 138 -37 54 -119 67 -175 29z m129 -40 c12 -13 25 -37 28 -55 5 -26
1 -36 -24 -62 -36 -36 -87 -40 -123 -11 -34 28 -34 104 0 132 33 27 92 25 119
-4z"/>
<path d="M859 553 c-44 -49 -100 -134 -94 -143 14 -22 35 -6 79 59 51 77 75
91 111 67 34 -23 31 -47 -16 -133 -33 -60 -39 -77 -28 -84 8 -5 16 -9 19 -9
13 0 90 162 90 188 0 76 -108 113 -161 55z"/>
</g>
</svg>
